<svg width="90" height="90" viewBox="0 0 90 90" fill="none" xmlns="http://www.w3.org/2000/svg">
<mask id="path-1-inside-1_102_2" fill="white">
<path fill-rule="evenodd" clip-rule="evenodd" d="M52.5007 0H37.5007V26.895L18.4828 7.8771L7.87622 18.4837L26.8923 37.4998H0V52.4998H26.8947L7.87781 71.5167L18.4844 82.1233L37.5007 63.107V90H52.5007V63.1082L71.5158 82.1233L82.1224 71.5167L63.1055 52.4998H90V37.4998H63.1079L82.124 18.4837L71.5174 7.8771L52.5007 26.8938V0Z"/>
</mask>
<path fill-rule="evenodd" clip-rule="evenodd" d="M52.5007 0H37.5007V26.895L18.4828 7.8771L7.87622 18.4837L26.8923 37.4998H0V52.4998H26.8947L7.87781 71.5167L18.4844 82.1233L37.5007 63.107V90H52.5007V63.1082L71.5158 82.1233L82.1224 71.5167L63.1055 52.4998H90V37.4998H63.1079L82.124 18.4837L71.5174 7.8771L52.5007 26.8938V0Z" fill="#CAB5EB"/>
<path d="M37.5007 0V-1.4H36.1007V0H37.5007ZM52.5007 0H53.9007V-1.4H52.5007V0ZM37.5007 26.895L36.5108 27.885L38.9007 30.2749V26.895H37.5007ZM18.4828 7.8771L19.4728 6.88715L18.4828 5.8972L17.4929 6.88715L18.4828 7.8771ZM7.87622 18.4837L6.88627 17.4938L5.89632 18.4837L6.88627 19.4737L7.87622 18.4837ZM26.8923 37.4998V38.8998H30.2722L27.8823 36.5099L26.8923 37.4998ZM0 37.4998V36.0998H-1.4V37.4998H0ZM0 52.4998H-1.4V53.8998H0V52.4998ZM26.8947 52.4998L27.8847 53.4898L30.2746 51.0998H26.8947V52.4998ZM7.87781 71.5167L6.88786 70.5268L5.89791 71.5167L6.88786 72.5067L7.87781 71.5167ZM18.4844 82.1233L17.4945 83.1133L18.4844 84.1032L19.4744 83.1133L18.4844 82.1233ZM37.5007 63.107H38.9007V59.7271L36.5108 62.117L37.5007 63.107ZM37.5007 90H36.1007V91.4H37.5007V90ZM52.5007 90V91.4H53.9007V90H52.5007ZM52.5007 63.1082L53.4907 62.1183L51.1007 59.7283V63.1082H52.5007ZM71.5158 82.1233L70.5259 83.1133L71.5158 84.1032L72.5058 83.1133L71.5158 82.1233ZM82.1224 71.5167L83.1124 72.5067L84.1023 71.5167L83.1124 70.5268L82.1224 71.5167ZM63.1055 52.4998V51.0998H59.7256L62.1156 53.4898L63.1055 52.4998ZM90 52.4998V53.8998H91.4V52.4998H90ZM90 37.4998H91.4V36.0998H90V37.4998ZM63.1079 37.4998L62.118 36.5099L59.728 38.8998H63.1079V37.4998ZM82.124 18.4837L83.114 19.4737L84.1039 18.4837L83.114 17.4938L82.124 18.4837ZM71.5174 7.8771L72.5074 6.88715L71.5174 5.8972L70.5275 6.88715L71.5174 7.8771ZM52.5007 26.8938H51.1007V30.2737L53.4907 27.8837L52.5007 26.8938ZM37.5007 1.4H52.5007V-1.4H37.5007V1.4ZM38.9007 26.895V0H36.1007V26.895H38.9007ZM17.4929 8.86705L36.5108 27.885L38.4907 25.9051L19.4728 6.88715L17.4929 8.86705ZM8.86617 19.4737L19.4728 8.86705L17.4929 6.88715L6.88627 17.4938L8.86617 19.4737ZM27.8823 36.5099L8.86617 17.4938L6.88627 19.4737L25.9024 38.4898L27.8823 36.5099ZM0 38.8998H26.8923V36.0998H0V38.8998ZM1.4 52.4998V37.4998H-1.4V52.4998H1.4ZM26.8947 51.0998H0V53.8998H26.8947V51.0998ZM8.86776 72.5067L27.8847 53.4898L25.9048 51.5099L6.88786 70.5268L8.86776 72.5067ZM19.4744 81.1334L8.86776 70.5268L6.88786 72.5067L17.4945 83.1133L19.4744 81.1334ZM36.5108 62.117L17.4945 81.1334L19.4744 83.1133L38.4907 64.0969L36.5108 62.117ZM38.9007 90V63.107H36.1007V90H38.9007ZM52.5007 88.6H37.5007V91.4H52.5007V88.6ZM51.1007 63.1082V90H53.9007V63.1082H51.1007ZM72.5058 81.1334L53.4907 62.1183L51.5108 64.0982L70.5259 83.1133L72.5058 81.1334ZM81.1325 70.5268L70.5259 81.1334L72.5058 83.1133L83.1124 72.5067L81.1325 70.5268ZM62.1156 53.4898L81.1325 72.5067L83.1124 70.5268L64.0955 51.5099L62.1156 53.4898ZM90 51.0998H63.1055V53.8998H90V51.0998ZM88.6 37.4998V52.4998H91.4V37.4998H88.6ZM63.1079 38.8998H90V36.0998H63.1079V38.8998ZM81.1341 17.4938L62.118 36.5099L64.0979 38.4898L83.114 19.4737L81.1341 17.4938ZM70.5275 8.86705L81.1341 19.4737L83.114 17.4938L72.5074 6.88715L70.5275 8.86705ZM53.4907 27.8837L72.5074 8.86705L70.5275 6.88715L51.5108 25.9038L53.4907 27.8837ZM51.1007 0V26.8938H53.9007V0H51.1007Z" fill="#111010" mask="url(#path-1-inside-1_102_2)"/>
</svg>
